# xmcd
#
# Track frame offsets:
#	187
#	26475
#	51307
#	85085
#	104362
#	142710
#	217972
#
# Disc length: 3879 seconds
#
# Revision: 1
# Processed by: cddbd v1.5.1PL0 Copyright (c) Steve Scherf et al.
# Submitted via: CDex 1.50Beta5
#
DISCID=530f2507
DTITLE=アーサー・フィードラー/ボストン・ポップス管弦楽団 - 珠玉の名曲集 Disc 10
DYEAR=1900
DGENRE=Classical
TTITLE0=組曲「グランド・キャニオン」日の出
TTITLE1=組曲「グランド・キャニオン」赤い砂漠
TTITLE2=山道を行く
TTITLE3=日没
TTITLE4=組曲「グランド・キャニオン」豪雨
TTITLE5=パリのアメリカ人
TTITLE6=ラプソディ・イン・ブルー
EXTD=
EXTT0=
EXTT1=
EXTT2=
EXTT3=
EXTT4=
EXTT5=
EXTT6=
PLAYORDER=
